<svg xmlns="http://www.w3.org/2000/svg" viewBox="0 0 1024 1024" role="img" aria-labelledby="title desc">
  <title id="title">NTE Piano MIDI Player icon</title>
  <desc id="desc">A rounded midnight square with piano keys, MIDI dots, and sharp/flat layer marks.</desc>
  <defs>
    <linearGradient id="bg" x1="160" y1="96" x2="864" y2="928" gradientUnits="userSpaceOnUse">
      <stop offset="0" stop-color="#14213D"/>
      <stop offset="0.55" stop-color="#27324F"/>
      <stop offset="1" stop-color="#0B1020"/>
    </linearGradient>
    <linearGradient id="gold" x1="210" y1="150" x2="810" y2="850" gradientUnits="userSpaceOnUse">
      <stop offset="0" stop-color="#F6C85F"/>
      <stop offset="1" stop-color="#D98A2B"/>
    </linearGradient>
  </defs>
  <rect x="64" y="64" width="896" height="896" rx="206" fill="url(#bg)"/>
  <path d="M214 652c92-178 502-178 594 0" fill="none" stroke="url(#gold)" stroke-width="52" stroke-linecap="round"/>
  <rect x="214" y="458" width="596" height="222" rx="34" fill="#F8FAFC"/>
  <rect x="286" y="458" width="50" height="140" rx="12" fill="#111827"/>
  <rect x="396" y="458" width="50" height="140" rx="12" fill="#111827"/>
  <rect x="566" y="458" width="50" height="140" rx="12" fill="#111827"/>
  <rect x="676" y="458" width="50" height="140" rx="12" fill="#111827"/>
  <path d="M214 594h596" stroke="#CBD5E1" stroke-width="12"/>
  <circle cx="312" cy="344" r="24" fill="#59C3C3"/>
  <circle cx="512" cy="300" r="24" fill="#F6C85F"/>
  <circle cx="712" cy="344" r="24" fill="#E84855"/>
  <path d="M312 344h200l200 0" fill="none" stroke="#94A3B8" stroke-width="18" stroke-linecap="round"/>
  <text x="512" y="792" text-anchor="middle" font-family="Avenir Next, Helvetica, Arial, sans-serif" font-weight="800" font-size="124" fill="#F8FAFC">NTE</text>
  <text x="512" y="872" text-anchor="middle" font-family="Avenir Next, Helvetica, Arial, sans-serif" font-weight="700" font-size="56" fill="#F6C85F"># / b</text>
</svg>
